<svg xmlns="http://www.w3.org/2000/svg" viewBox="0 0 284.02 37.18"><defs><style>.cls-1{isolation:isolate;}.cls-2,.cls-3,.cls-4{fill:#1d1d1b;}.cls-2,.cls-3{stroke:#1d1d1b;stroke-miterlimit:10;}.cls-2{mix-blend-mode:multiply;}.cls-4{fill-rule:evenodd;}</style></defs><g class="cls-1"><g id="Capa_2" data-name="Capa 2"><g id="Capa_1-2" data-name="Capa 1"><path class="cls-2" d="M.5,2.29h9.63A23.7,23.7,0,0,1,14,2.6a9.09,9.09,0,0,1,3.47,1.27,7.38,7.38,0,0,1,2.5,2.69,9.24,9.24,0,0,1,1,4.56,6.85,6.85,0,0,1-1.51,4.43,7.43,7.43,0,0,1-4.48,2.51v.09a8.73,8.73,0,0,1,3,.78,7.35,7.35,0,0,1,3.89,4.22,9.24,9.24,0,0,1,.55,3.21,9,9,0,0,1-1.11,4.7,8.46,8.46,0,0,1-2.79,2.85,10.54,10.54,0,0,1-3.63,1.42,19.63,19.63,0,0,1-3.66.38H.5ZM3.62,16.73h6.46A10.79,10.79,0,0,0,14,16.14a6.69,6.69,0,0,0,2.36-1.44,4.22,4.22,0,0,0,1.13-1.81,6.61,6.61,0,0,0-.3-4.68A4.92,4.92,0,0,0,15.6,6.37a6.49,6.49,0,0,0-2.31-1,13.86,13.86,0,0,0-2.78-.28H3.62Zm0,16.15h7.12a12.29,12.29,0,0,0,4.42-.66,6.81,6.81,0,0,0,2.57-1.66,5.1,5.1,0,0,0,1.2-2.1,7.34,7.34,0,0,0,.31-2,6.68,6.68,0,0,0-.71-3.17,6.18,6.18,0,0,0-1.84-2.14,7.8,7.8,0,0,0-2.57-1.21,11.48,11.48,0,0,0-2.9-.37H3.62Z"/><path class="cls-2" d="M110.24,29.79a12.51,12.51,0,0,1-4.69,4.13,15.32,15.32,0,0,1-7,1.67A16.92,16.92,0,0,1,92,34.34a15.65,15.65,0,0,1-8.67-8.7A17.11,17.11,0,0,1,82.1,19a17.2,17.2,0,0,1,1.25-6.65A15.68,15.68,0,0,1,92,3.66a16.92,16.92,0,0,1,6.53-1.25,16,16,0,0,1,5.89,1.16,11.84,11.84,0,0,1,5,3.84L106.67,9.5A7.9,7.9,0,0,0,105.33,8a9.14,9.14,0,0,0-1.94-1.34,12,12,0,0,0-2.34-.94,9,9,0,0,0-2.5-.36,12.87,12.87,0,0,0-5.44,1.12,12.4,12.4,0,0,0-4.08,3,13,13,0,0,0-2.56,4.34,15.44,15.44,0,0,0,0,10.39A13.16,13.16,0,0,0,89,28.54a12.4,12.4,0,0,0,4.08,3,12.87,12.87,0,0,0,5.44,1.12,13.79,13.79,0,0,0,2.48-.23,10.36,10.36,0,0,0,2.41-.76,9.07,9.07,0,0,0,2.22-1.44,10.66,10.66,0,0,0,1.94-2.3Z"/><path class="cls-2" d="M129.53,5.78v11h8.68v3.07h-8.68V32.22h13v3.3H126.23v-33h16.32v3.3Z"/><path class="cls-2" d="M172.63,5.78H167V35.52h-3.31V5.78h-5.6V2.48h14.52Z"/><path class="cls-2" d="M68.63,19A16.52,16.52,0,1,1,52.11,2.48,16.52,16.52,0,0,1,68.63,19Zm-3.3,0A13.22,13.22,0,1,0,52.11,32.22,13.22,13.22,0,0,0,65.33,19Z"/><path class="cls-2" d="M283.52,2.29v3.3c-4.18,0-7.75,3.45-9.21,8.34h0l-3.17,10.74h0c-1.89,6.23-6.72,10.66-12.38,10.66V32c4.19,0,7.76-3.45,9.22-8.34h0L271.15,13h0C273,6.72,277.87,2.29,283.52,2.29Z"/><line class="cls-3" x1="8.83" y1="19.52" x2="8.83" y2="16.79"/><polygon class="cls-2" points="201.63 5.78 196.03 5.78 196.03 35.52 192.72 35.52 192.72 5.78 187.12 5.78 187.12 2.48 201.63 2.48 201.63 5.78"/><path class="cls-4" d="M250.89,15.48a18.12,18.12,0,0,0-1.48-4.88A16,16,0,0,0,245,5a22.26,22.26,0,0,0-6.68-3.72A20.5,20.5,0,0,0,231.23,0a19.4,19.4,0,0,0-3.37.35,20,20,0,0,0-7.3,3,17.81,17.81,0,0,0-7.05,8.88,17.39,17.39,0,0,0-1.07,5.14,14.08,14.08,0,0,0,.36,4.19,12.71,12.71,0,0,0,2.46,5c.15.19.31.38.44.58a13,13,0,0,0,2.76,3.07,2.76,2.76,0,0,1,.3.29A20.13,20.13,0,0,0,232,37.14a14,14,0,0,0,3.3-.14,15.51,15.51,0,0,0,4.56-1.47,22.55,22.55,0,0,0,8.42-7.33A16.05,16.05,0,0,0,251.15,19,19.84,19.84,0,0,0,250.89,15.48Zm-5.19-7.7c.14.19.31.36.46.54l0,0-.74-.61C245.51,7.66,245.6,7.65,245.7,7.78ZM247.48,12a7.85,7.85,0,0,1,.86,3.83,9.06,9.06,0,0,1-1,3.81v-.35A15.13,15.13,0,0,0,247,16a1.65,1.65,0,0,1,0-.31,11.81,11.81,0,0,0-.8-4.23,13.14,13.14,0,0,0-.52-1.22A12.76,12.76,0,0,0,245,9.06C245.44,9.16,246.93,10.91,247.48,12Zm-2.12,2.45a1,1,0,0,1,.17.37,1.59,1.59,0,0,0,.07.2,2.53,2.53,0,0,1,0,2c0,.05,0,.1,0,.15l-.07.11A14.1,14.1,0,0,0,245.36,14.48ZM229.8,28.32c.47-.23.93,0,1.39,0A8.06,8.06,0,0,1,229.8,28.32Zm.82,1.36a4.9,4.9,0,0,1-1.62-.06C229.55,29.62,230.08,29.67,230.62,29.68Zm-.22-2.58a1.53,1.53,0,0,1-.64,0,9.93,9.93,0,0,1-1.31-.3,8.34,8.34,0,0,0,3.64-.84,14.2,14.2,0,0,0,2.48-1.42,1.12,1.12,0,0,1,.52-.21,5.68,5.68,0,0,1,.61-.07.59.59,0,0,1-.18.2A12.49,12.49,0,0,1,230.4,27.1Zm-7.19-7.39a4.89,4.89,0,0,0,.27.76.56.56,0,0,1,0,.42,7.24,7.24,0,0,0-.2,2.12,4.63,4.63,0,0,0,.51,2,8.19,8.19,0,0,1-1.12-.65.52.52,0,0,1-.14-.22,8.21,8.21,0,0,1-.59-2.58,10.86,10.86,0,0,1,.76-4.85s0-.05,0-.1a.48.48,0,0,1,0,.28A10,10,0,0,0,223.21,19.71Zm.25-6.58a2.8,2.8,0,0,1-.35.69,12.19,12.19,0,0,0-2.1,5.41,10.94,10.94,0,0,0,.1,3.61V23a9.88,9.88,0,0,1-.51-1.47,12.87,12.87,0,0,1-.4-2.62,3.75,3.75,0,0,1,.1-.82,14.68,14.68,0,0,1,2.15-5,1.91,1.91,0,0,1,.31-.38,10.45,10.45,0,0,1,1.39-1.18A17.26,17.26,0,0,0,223.46,13.13Zm-4.27,4.73c0,.51,0,1-.06,1.52v.19a.76.76,0,0,1-.15-.4,7.31,7.31,0,0,1,.4-3.79,10.5,10.5,0,0,1,3-4.37s0,0,.06,0,0,.08-.06.11-.17.21-.25.33c-.55.79-1.13,1.56-1.65,2.37A8.05,8.05,0,0,0,219.19,17.86Zm.13,5.13c-.07,0-.09-.08-.12-.13a8.12,8.12,0,0,1-.84-1.82,1.14,1.14,0,0,1-.12-.41,2.67,2.67,0,0,1-.18-.79,6.23,6.23,0,0,1,.24.73A6.66,6.66,0,0,0,219,22,1.92,1.92,0,0,1,219.32,23Zm14-15a5.55,5.55,0,0,1,2,.49l.11.06.09.06a4.55,4.55,0,0,0-.95-.09c-.59,0-1.18,0-1.77,0a11.35,11.35,0,0,0-3.61.71A12.34,12.34,0,0,0,225.75,11l-.15.11h-.07c.11-.15.19-.29.28-.42a2.17,2.17,0,0,1,1.25-1.11,16.54,16.54,0,0,1,3.72-1.4A9.07,9.07,0,0,1,233.27,8ZM231.71,5.3c.07-.09.15-.16.29-.08A.48.48,0,0,1,231.71,5.3Zm8.45,9.17c-.06-.28-.13-.56-.2-.85.11,0,.13.11.17.17a16.34,16.34,0,0,1,2.44,5.63c.07.34.11.68.17,1a.29.29,0,0,1-.16.33,15,15,0,0,1-3.19,1.45l-1,.31s-.08,0-.13,0,.09-.21.14-.32A7.53,7.53,0,0,0,239,20a.64.64,0,0,1,.13-.33,6.6,6.6,0,0,0,1-2.43A7.33,7.33,0,0,0,240.16,14.47Zm-1.7,1.5a.34.34,0,0,0,0,.08c-.09,0-.09-.13-.12-.19a7.66,7.66,0,0,0-1.4-2.06,5,5,0,0,0-3.41-1.54l-.19,0-.05,0a4,4,0,0,1,2.38-1,1.94,1.94,0,0,1,1.41.56,4.59,4.59,0,0,1,.93,1.35A5.5,5.5,0,0,1,238.46,16Zm-2.37-5.74a4.37,4.37,0,0,0-3,.81,7.69,7.69,0,0,0-1.5,1.29.54.54,0,0,1-.27.18,10.08,10.08,0,0,0-3.3,1.75l-.18.14-.09,0c0-.06,0-.09,0-.11a12.4,12.4,0,0,1,3.55-3.7,6.92,6.92,0,0,1,2.35-1,1.68,1.68,0,0,1,.55,0,7.67,7.67,0,0,1,1.93.58C236.18,10.26,236.13,10.23,236.09,10.23ZM229.8,5.31c-.41.31-.82.62-1.21,1a1.48,1.48,0,0,1-.38.23c-.77.33-1.57.61-2.35.92a19.06,19.06,0,0,0-4.6,2.62l-.11.08,0,0A14.53,14.53,0,0,1,225,6.79a11.92,11.92,0,0,1,5-1.63C229.93,5.25,229.86,5.28,229.8,5.31Zm-5.6,8.89a1.3,1.3,0,0,1,.22-.44,11.36,11.36,0,0,1,5.21-3.63c.26-.09.52-.16.78-.24a.44.44,0,0,1,.2,0c0,.06-.05.07-.09.1a13.46,13.46,0,0,0-3.17,3.22,16.22,16.22,0,0,0-2,3.81,1.05,1.05,0,0,1-.15.3,11.42,11.42,0,0,0-1,1.69.57.57,0,0,1-.07.12l-.07-.25a1.55,1.55,0,0,1-.05-.23A10,10,0,0,1,224.2,14.2Zm.17,7.78c.15.09.13.22.14.34a7.73,7.73,0,0,0,.2,1.17,4.62,4.62,0,0,0,.68,1.54l0,.07c-.08,0-.12,0-.16-.05a2.12,2.12,0,0,1-.84-1.39A4.73,4.73,0,0,1,224.37,22Zm1.75,5.19a3.1,3.1,0,0,1-1.4-.55Zm0-9.39a.77.77,0,0,1,.12-.24,12.1,12.1,0,0,1,3.81-3.38.37.37,0,0,1,.23-.09c-.26.44-.5.87-.71,1.31a12,12,0,0,0-1.13,4.23,5.12,5.12,0,0,0,.44,2.7,3.85,3.85,0,0,0,.82,1.11A7,7,0,0,1,225.87,22a1.49,1.49,0,0,0-.14-.12.51.51,0,0,1-.22-.49A12.6,12.6,0,0,1,226.14,17.78Zm3.34,2.67c0-.13,0-.26,0-.39a9.5,9.5,0,0,1,.51-2.89,11.39,11.39,0,0,1,1.91-3.59.57.57,0,0,1,.39-.24,4.24,4.24,0,0,1,4.3,1.66,7.24,7.24,0,0,1,1.28,2.72.51.51,0,0,1-.05.4,9.3,9.3,0,0,1-1.2,1.85,15.23,15.23,0,0,1-2.7,2.56,1.67,1.67,0,0,1-.6.25,4.78,4.78,0,0,1-1.84.26,1.93,1.93,0,0,1-1.52-.93A3.47,3.47,0,0,1,229.48,20.45Zm7.83,1.71c-.07.14-.16.27-.23.41a.66.66,0,0,1-.7.43q.51-.49,1-1C237.39,22.07,237.33,22.11,237.31,22.16ZM233,27.26a12.5,12.5,0,0,0,3.71-2.56,6.59,6.59,0,0,0,.6-.69.55.55,0,0,1,.34-.21,20.12,20.12,0,0,0,4.52-1.61l.61-.32a.84.84,0,0,1-.18.69,13.86,13.86,0,0,1-5.78,4.6,3.22,3.22,0,0,1-1.25.29,25.25,25.25,0,0,1-2.61,0,.47.47,0,0,1-.23,0A.66.66,0,0,1,233,27.26Zm7.79-14.33a12.11,12.11,0,0,0-1.74-2,1.44,1.44,0,0,1-.23-.32,7.42,7.42,0,0,0-1.75-2.19,6.33,6.33,0,0,0-3-1.34c-.46-.07-.93-.1-1.41-.14.4-.05.79-.12,1.18-.16.91-.09,1.82-.17,2.73-.18a5.17,5.17,0,0,1,1.56.28,9,9,0,0,1,3,1.59,1.31,1.31,0,0,1,.24.23,15.19,15.19,0,0,1,2.74,5.18,9.41,9.41,0,0,1,.44,3.29,10.2,10.2,0,0,1-.4,2.26c-.06.25-.26.36-.46.53a14.79,14.79,0,0,0-.31-1.45A17.71,17.71,0,0,0,240.79,12.93Zm-6.73-8.69a4.83,4.83,0,0,1,1.1-.34.34.34,0,0,1,.2,0,8.37,8.37,0,0,1,1.21.66c-.25,0-.51,0-.76,0a2.06,2.06,0,0,1-1-.14C234.54,4.36,234.3,4.31,234.06,4.24Zm8.7,1c-.18-.1-.41-.13-.52-.35A1.54,1.54,0,0,1,242.76,5.25Zm1.09,4a2.15,2.15,0,0,1,.37.57.17.17,0,0,1,.07.18c0-.07-.09-.1-.09-.16a3,3,0,0,1-.41-.53,17,17,0,0,0-1.92-2,.43.43,0,0,1,.36.12A9.51,9.51,0,0,1,243.85,9.28Zm-2.09-4.71c-.09,0-.13,0-.17-.06S241.7,4.52,241.76,4.57Zm-.27,1.06L242,6a1.14,1.14,0,0,1-.6-.27,8.87,8.87,0,0,0-2-.78.36.36,0,0,1-.17-.07l-1-.76a.73.73,0,0,1,.28.06,12.49,12.49,0,0,1,2.11,1A2.73,2.73,0,0,1,241.49,5.63Zm-1.61-2.1a.54.54,0,0,1-.34-.16A.54.54,0,0,1,239.88,3.53ZM238.77,3a5.55,5.55,0,0,1,.69.28c-.07,0,0,0,0,0l0,0a6,6,0,0,1-.75-.26c-.44-.09-.87-.22-1.32-.28a8,8,0,0,0-1.2,0,.63.63,0,0,1-.33-.06,14.76,14.76,0,0,0-2.85-1s-.05,0-.06-.07A16.91,16.91,0,0,1,238.77,3ZM213.63,20.27a1,1,0,0,1,0,.24,7.83,7.83,0,0,1-.24-1.6,13.78,13.78,0,0,1,.63-4.86,16.79,16.79,0,0,1,6.31-9l.11-.07a1.44,1.44,0,0,1,.46-.31,1.4,1.4,0,0,1-.4.37,22.85,22.85,0,0,0-2.87,3,18.13,18.13,0,0,0-3.58,7.23A18.45,18.45,0,0,0,213.63,20.27Zm1.22,1.88a2.42,2.42,0,0,1-.13-.58l-.12-.9a1.13,1.13,0,0,1,0-.26c.08.57.17,1.12.29,1.68s.3,1.2.46,1.8A8.08,8.08,0,0,1,214.85,22.15Zm.68,2.19a.38.38,0,0,1-.1-.3.42.42,0,0,1,.11.29.26.26,0,0,1,.09.22A.22.22,0,0,1,215.53,24.34Zm0-4.89s0,0,0,.06a.48.48,0,0,1-.06-.28,15,15,0,0,1,.33-3.34A17.94,17.94,0,0,1,223.06,5a14,14,0,0,1,4.52-2,11.5,11.5,0,0,1,5.88.19l.15.07a12.06,12.06,0,0,0-1.36.56.44.44,0,0,1-.27.05c-.44,0-.87-.07-1.31-.06a11.65,11.65,0,0,0-4.12.8,15,15,0,0,0-6.54,5A15.12,15.12,0,0,0,217.63,14a1.66,1.66,0,0,1-.15.33A15.29,15.29,0,0,0,215.57,19.45Zm10.56,12a15.59,15.59,0,0,1-6.07-2.94,12.09,12.09,0,0,1-3.27-4.07,4.28,4.28,0,0,1-.36-1.36,10.56,10.56,0,0,1,.47-4.73s0,0,0-.06c0,.28,0,.53,0,.78a9.55,9.55,0,0,0,3,6.6,5.24,5.24,0,0,1,.79,1,11.75,11.75,0,0,0,4.08,3.91,14.37,14.37,0,0,0,1.83.94.39.39,0,0,1,.2.12Zm1.07-6.1a3.1,3.1,0,0,1-1.48-2.15,9.69,9.69,0,0,0,4.66,1.35c0,.08-.1.09-.15.11a12.14,12.14,0,0,1-2.56.76A.64.64,0,0,1,227.2,25.34Zm.72,5.15c.51.09,1,.18,1.54.23a10.18,10.18,0,0,0,1.83,0,11.88,11.88,0,0,0,3.51-.91l.19-.08a.45.45,0,0,0,.3-.47c0-.13,0-.16.13-.18a15.9,15.9,0,0,0,2-.75,5.2,5.2,0,0,1,.8-.2,8.93,8.93,0,0,0,3.3-1.51,5.38,5.38,0,0,0,2.14-3.43,1.21,1.21,0,0,1,.16-.41A10.69,10.69,0,0,0,245,20.22a.88.88,0,0,1,.12-.26,6.91,6.91,0,0,0,1.11-1.63s0,0,.08-.09c0,.27,0,.5.06.74a9.91,9.91,0,0,1-.24,2.82,1.36,1.36,0,0,1-.2.48,24.09,24.09,0,0,1-6.44,6.33,16.38,16.38,0,0,1-4.42,2.12,11.58,11.58,0,0,1-7.27-.2.93.93,0,0,1-.33-.12A.66.66,0,0,1,227.92,30.49Zm20-3.86a21.29,21.29,0,0,1-8.65,7.75,14.46,14.46,0,0,1-3.57,1.21c-.07,0-.13,0-.2,0a1.2,1.2,0,0,0-.56-.09,18.35,18.35,0,0,1-6.9-1.42l-.19-.08-.11-.06,1.11.1a14.11,14.11,0,0,0,1.59.08,19.59,19.59,0,0,0,5.44-.71,16.93,16.93,0,0,0,8-4.93A11.1,11.1,0,0,0,245,27.1a6,6,0,0,1,.6-.73,16.35,16.35,0,0,0,2.95-4.14A13.31,13.31,0,0,0,250,16.4a.47.47,0,0,1,0-.31c0,.14.09.26.07.41.07.62.15,1.25.16,1.87A14.79,14.79,0,0,1,247.93,26.63Z"/></g></g></g></svg>